# xmcd
#
# Track frame offsets: 
#        150
#        12459
#        33103
#        48372
#        63522
#        80749
#        101926
#        117220
#        137289
#        147874
#        176165
#        190925
#
# Disc length: 2872 seconds
#
# Revision: 0
# Processed by: cddbd v1.5.2PL0 Copyright (c) Steve Scherf et al.
# Submitted via: ExactAudioCopy v0.95b3
#
DISCID=a50b360c
DTITLE=Blutengel - Tranenherz [CD3] Sign Of The Zodiac
DYEAR=2011
DGENRE=Gothic
TTITLE0=Aries
TTITLE1=Taurus
TTITLE2=Gemini
TTITLE3=Cancer
TTITLE4=Leo
TTITLE5=Virgo
TTITLE6=Libra
TTITLE7=Scorpio
TTITLE8=Sagittarius
TTITLE9=Capricorn
TTITLE10=Aquarius
TTITLE11=Pisces
EXTD=
EXTT0=
EXTT1=
EXTT2=
EXTT3=
EXTT4=
EXTT5=
EXTT6=
EXTT7=
EXTT8=
EXTT9=
EXTT10=
EXTT11=
PLAYORDER=
